Coordinates
version=1
nRows=17
nColumns=24
inDegrees=yes

Units are S.I. units (second, meters, Newtons, ...)
Angles are in degrees.

endheader
time	pelvis_tilt	pelvis_list	pelvis_rotation	pelvis_tx	pelvis_ty	pelvis_tz	hip_flexion_r	hip_adduction_r	hip_rotation_r	knee_angle_r	ankle_angle_r	subtalar_angle_r	mtp_angle_r	hip_flexion_l	hip_adduction_l	hip_rotation_l	knee_angle_l	ankle_angle_l	subtalar_angle_l	mtp_angle_l	lumbar_extension	lumbar_bending	lumbar_rotation
      0.58800000	     -0.91213041	      2.89773563	     -0.45761616	     -0.81839628	      1.05232027	      0.34324125	     22.56923281	      1.54404199	    -10.51625951	     -0.40851988	      3.50910571	     -2.44109093	     -0.14662846	    -12.88959878	      7.11055423	     -3.12846504	     -7.48898818	     11.81281684	      4.58800432	      0.18945576	      5.45198338	     -0.69579910	     -2.17148631
      0.59216667	     -0.90424861	      2.96866555	     -0.58784649	     -0.81298367	      1.05185869	      0.34339096	     22.59873134	      1.57653438	    -10.29090308	     -0.89813361	      3.52088131	     -2.42340751	     -0.16818978	    -12.98111307	      7.21126508	     -3.20884352	     -7.94296845	     11.73034674	      4.55413643	      0.15207786	      5.32683442	     -0.77211441	     -2.37361353
      0.59633333	     -0.86272544	      2.96622743	     -0.57060728	     -0.80728718	      1.05158291	      0.34333579	     22.51661246	      1.62580564	    -10.17681590	     -1.32886934	      3.52160253	     -2.45760012	     -0.17332308	    -13.10770510	      7.19558038	     -3.16582951	     -8.43946711	     11.68769890	      4.53851775	      0.14384648	      5.41260176	     -0.74047197	     -2.41054923
      0.60050000	     -0.81338786	      2.98642938	     -0.65397654	     -0.80169073	      1.05126348	      0.34353824	     22.41564189	      1.70707141	     -9.63792998	     -1.76786975	      3.74398605	     -3.02539138	     -0.23250574	    -13.22053311	      7.21030580	     -3.28351893	     -8.95522866	     11.56453897	      4.44026625	      0.06521873	      5.35827331	     -0.84849280	     -2.74488133
      0.60466667	     -0.77674659	      2.98189958	     -0.65706513	     -0.79593688	      1.05099914	      0.34345463	     22.33614409	      1.75124315	     -9.52341535	     -2.25190652	      3.67448993	     -3.08242691	     -0.23891314	    -13.32413068	      7.19794094	     -3.21972574	     -9.48503641	     11.51482424	      4.44923149	      0.05907981	      5.43066032	     -0.76984369	     -2.76801988
      0.60883333	     -0.78832926	      3.01579629	     -0.74341992	     -0.79031382	      1.05063607	      0.34362603	     22.31764252	      1.80398012	     -9.13799004	     -2.74151075	      3.51905285	     -3.56714848	     -0.27675630	    -13.32751658	      7.22411911	     -3.35826241	    -10.08670487	     11.35865616	      4.49287166	      0.02809996	      5.30909556	     -0.72469486	     -2.89076134
      0.61300000	     -0.72868925	      2.99391173	     -0.70465852	     -0.78449387	      1.05048619	      0.34352097	     22.16697504	      1.84718079	     -8.96891338	     -3.17111461	      3.45645025	     -3.61486200	     -0.28133142	    -13.41405931	      7.17178484	     -3.31608698	    -10.71016490	     11.29902677	      4.49555504	      0.02528278	      5.44236743	     -0.68534627	     -2.89591732
      0.61716667	     -0.70168955	      3.00483578	     -0.90898743	     -0.77878414	      1.05017819	      0.34418686	     22.02759187	      2.00669053	     -7.96223734	     -3.50883821	      2.95404267	     -4.95249972	     -0.36474418	    -13.42021517	      7.15024318	     -3.77064416	    -11.36527968	     10.97210906	      4.86380400	      0.00118768	      5.49944000	     -0.80291004	     -3.05203815
      0.62133333	     -0.67082594	      2.97279066	     -0.84398746	     -0.77293144	      1.05007108	      0.34407074	     21.88288205	      2.04551098	     -7.82401769	     -3.90527715	      2.88261971	     -4.97676202	     -0.36936017	    -13.42586177	      7.06793642	     -3.74952642	    -12.08807215	     10.92870210	      4.86382558	      0.00204793	      5.54951233	     -0.70329040	     -3.05606301
      0.62550000	     -0.63725177	      2.95207573	     -0.80172025	     -0.76710580	      1.04998263	      0.34399360	     21.73557542	      2.07556810	     -7.67347051	     -4.29977959	      2.76010586	     -5.02304648	     -0.37439603	    -13.40703071	      6.99641378	     -3.78721928	    -12.85003672	     10.83134050	      4.88760150	      0.00400953	      5.58782621	     -0.60906697	     -3.06743667
      0.62966667	     -0.63392812	      2.92298045	     -0.97943292	     -0.76125137	      1.04976940	      0.34462171	     21.61760607	      2.24360496	     -7.09592256	     -4.62069905	      1.88261910	     -5.89116932	     -0.42706907	    -13.31537468	      6.90320508	     -4.39048927	    -13.64168967	     10.32638892	      5.51849653	      0.04329407	      5.58521785	     -0.57795867	     -3.14547048
      0.63383333	     -0.59154946	      2.87877234	     -0.88952278	     -0.75536827	      1.04979340	      0.34453710	     21.41360251	      2.27744688	     -6.91602585	     -4.92857097	      1.80487940	     -5.92926787	     -0.43053548	    -13.25655662	      6.77657396	     -4.41713164	    -14.51044620	     10.25814153	      5.52200386	      0.05041427	      5.64336501	     -0.49412628	     -3.14625998
      0.63800000	     -0.59765654	      2.81204363	     -1.00808975	     -0.74940776	      1.04967801	      0.34513217	     21.26694399	      2.45737064	     -6.42715667	     -5.19237608	      0.97258282	     -6.79057632	     -0.47376297	    -13.10914350	      6.60657423	     -5.00870425	    -15.40365259	      9.75942076	      6.18799202	      0.13117878	      5.64308194	     -0.39770290	     -3.21486575
      0.64216667	     -0.53666940	      2.76106745	     -0.92507093	     -0.74354414	      1.04979288	      0.34506582	     21.03475008	      2.48898483	     -6.25723850	     -5.47621410	      0.87421331	     -6.81182478	     -0.47629812	    -13.01673994	      6.45877408	     -5.05816346	    -16.36113167	      9.66390544	      6.19686037	      0.14267767	      5.71123897	     -0.32079367	     -3.21300020
      0.64633333	     -0.53138836	      2.63066099	     -1.00016360	     -0.73744823	      1.04979107	      0.34596395	     20.78216421	      2.75827757	     -5.42097752	     -5.56591522	     -0.11469865	     -8.38985181	     -0.54232998	    -12.83111851	      6.14513698	     -5.72302780	    -17.37998343	      9.31820850	      7.17695287	      0.42352343	      5.71798567	     -0.21223907	     -3.26843409
      0.65050000	     -0.51173513	      2.54123543	     -0.94740209	     -0.73144765	      1.04989928	      0.34605971	     20.59707845	      2.84593942	     -5.38141057	     -5.85242492	     -0.37840128	     -8.37039787	     -0.54901008	    -12.63725712	      5.92407564	     -5.98312614	    -18.43000555	      8.96481642	      7.26304179	      0.46381449	      5.68980891	     -0.13780887	     -3.27439795
      0.65466667	     -0.44804492	      2.46112894	     -1.00394253	     -0.72549310	      1.05004340	      0.34628719	     20.39428673	      2.95229145	     -5.29757522	     -6.16614788	     -0.98857740	     -8.55147365	     -0.56538855	    -12.47576516	      5.72887140	     -6.34267008	    -19.46317478	      8.20460910	      7.68702954	      0.56882661	      5.76003542	      0.02676265	     -3.31391013
